<?xml version="1.0" standalone="no"?>
<!DOCTYPE svg PUBLIC "-//W3C//DTD SVG 20010904//EN"
 "http://www.w3.org/TR/2001/REC-SVG-20010904/DTD/svg10.dtd">
<svg version="1.0" xmlns="http://www.w3.org/2000/svg"
 width="400.000000pt" height="400.000000pt" viewBox="0 0 400.000000 400.000000"
 preserveAspectRatio="xMidYMid meet">
<metadata>
Created by potrace 1.11, written by Peter Selinger 2001-2013
</metadata>
<g transform="translate(0.000000,400.000000) scale(0.100000,-0.100000)"
fill="#000000" stroke="none">
<path d="M2798 3598 c-296 -108 -305 -117 -140 -142 62 -10 118 -19 132 -21 8
-1 49 -8 90 -15 41 -6 86 -13 100 -16 14 -2 48 -7 75 -10 82 -11 82 -12 5
-104 -87 -104 -93 -115 -77 -128 10 -8 80 13 262 79 137 50 253 95 257 102 4
6 4 15 2 19 -12 18 -433 328 -446 327 -7 0 -124 -41 -260 -91z"/>
<path d="M2228 3367 c-92 -34 -169 -65 -173 -68 -3 -3 12 -18 34 -33 l39 -27
65 22 65 23 170 -127 170 -128 46 19 c56 22 69 6 -137 161 l-148 110 38 16
c20 9 47 18 60 21 13 4 23 10 23 14 0 7 -72 61 -81 59 -2 0 -79 -28 -171 -62z"/>
<path d="M1816 3220 c-121 -41 -126 -135 -10 -189 52 -25 124 -29 267 -16 77
7 89 6 107 -10 28 -25 25 -34 -17 -52 -27 -11 -70 -15 -143 -15 l-105 0 40
-34 c52 -44 83 -52 169 -42 82 10 168 48 183 80 22 50 -8 102 -80 139 -49 26
-124 29 -228 11 -96 -16 -145 -10 -154 18 -3 11 -4 24 0 30 8 13 76 30 137 35
27 2 52 6 54 8 3 2 -11 16 -31 31 -30 23 -43 27 -90 24 -30 -2 -75 -10 -99
-18z"/>
<path d="M1483 3097 c-18 -7 -34 -16 -35 -22 -1 -5 55 -53 124 -105 69 -52
131 -102 137 -113 27 -42 -23 -88 -91 -81 -48 4 -89 28 -243 143 l-126 93 -45
-17 c-24 -9 -44 -18 -44 -21 0 -2 53 -44 118 -93 213 -160 274 -192 371 -192
63 0 139 34 158 72 22 42 16 102 -14 140 -26 33 -246 202 -267 206 -6 1 -26
-4 -43 -10z"/>
<path d="M922 2890 c-54 -13 -242 -82 -241 -89 0 -5 353 -273 403 -305 14 -10
92 10 102 25 2 4 -18 24 -46 44 -27 20 -50 40 -50 45 0 10 58 25 85 21 11 -1
57 -13 102 -26 82 -24 83 -24 135 -6 61 22 66 18 -83 66 -87 28 -87 28 -92 66
-15 112 -175 192 -315 159z m125 -81 c34 -12 73 -48 73 -65 0 -20 -26 -41 -74
-59 l-44 -17 -71 53 c-39 30 -71 56 -71 59 0 10 92 38 127 39 17 1 44 -4 60
-10z"/>
<path d="M2820 2824 c-69 -25 -134 -49 -145 -54 -11 -5 -173 -63 -360 -130
-187 -67 -357 -128 -378 -136 -21 -8 -95 -35 -165 -60 -70 -25 -221 -80 -337
-122 -115 -41 -216 -81 -224 -88 -12 -11 -14 -111 -13 -626 0 -721 -1 -655 15
-661 11 -4 350 110 422 143 11 5 146 54 300 109 154 55 442 159 640 230 198
72 365 131 372 131 6 0 15 9 18 20 8 26 9 1266 0 1280 -8 14 -4 15 -145 -36z
m-491 -512 c12 -22 -3 -42 -30 -42 -25 0 -34 32 -13 47 24 17 31 16 43 -5z
m-432 -158 c8 -21 -19 -46 -40 -38 -17 6 -23 35 -10 47 12 13 44 7 50 -9z"/>
<path d="M3493 2737 l-272 -101 -21 -76 c-12 -41 -23 -82 -24 -90 -2 -8 -22
-82 -44 -163 -40 -144 -43 -177 -17 -177 7 0 66 86 131 191 l119 192 215 143
c118 79 215 150 215 157 1 11 -15 27 -25 26 -3 0 -127 -46 -277 -102z"/>
<path d="M265 2682 c-249 -90 -265 -97 -265 -112 0 -15 441 -342 454 -337 6 2
121 44 254 92 221 80 268 103 248 122 -6 7 -132 6 -343 -2 l-116 -5 7 59 c4
33 8 68 10 78 8 37 20 139 21 163 0 14 -6 26 -15 27 -8 1 -123 -37 -255 -85z"/>
<path d="M3333 2242 c-10 -8 -226 -358 -236 -384 -3 -9 0 -21 7 -27 13 -11 73
33 280 202 56 47 64 50 266 107 102 29 191 57 198 62 28 23 -8 36 -106 38 -53
1 -165 3 -248 5 -83 2 -155 0 -161 -3z"/>
<path d="M3407 1903 c-41 -32 -126 -98 -188 -146 -171 -133 -166 -158 17 -91
55 20 134 49 178 65 l79 28 101 -29 c55 -16 166 -48 245 -70 100 -29 146 -39
154 -31 16 16 -4 34 -111 99 -54 32 -161 98 -239 145 -78 48 -146 87 -151 87
-6 0 -44 -26 -85 -57z"/>
<path d="M398 1607 c-236 -85 -278 -103 -278 -120 0 -19 5 -19 118 -13 64 3
140 8 167 10 28 2 102 7 165 11 l115 6 183 -65 c272 -97 276 -80 25 114 -97
74 -185 140 -197 146 -18 9 -67 -5 -298 -89z"/>
<path d="M3041 1306 c-43 -16 -47 -27 -17 -46 60 -38 126 -86 126 -91 0 -12
-170 -70 -182 -63 -7 4 -46 32 -86 62 l-73 54 -44 -17 c-25 -9 -45 -20 -45
-23 0 -4 19 -20 43 -37 23 -16 49 -35 57 -42 8 -6 82 -62 164 -123 156 -116
150 -114 218 -86 l28 12 -37 30 c-21 16 -57 42 -80 58 -24 16 -43 32 -43 36 0
4 39 21 86 38 l86 31 77 -56 c42 -31 81 -60 87 -65 7 -5 32 -1 59 10 l48 19
-204 153 c-112 84 -211 154 -219 156 -8 2 -30 -3 -49 -10z"/>
<path d="M420 1103 c-246 -242 -253 -272 -30 -149 69 38 150 83 180 99 30 16
65 36 78 44 18 11 61 13 210 10 204 -4 224 -2 220 21 -2 11 -70 39 -213 88
-116 40 -220 73 -233 73 -16 1 -76 -52 -212 -186z"/>
<path d="M2513 1118 c-134 -23 -183 -96 -110 -165 53 -51 95 -63 205 -58 53 2
116 7 140 10 60 7 114 -23 91 -52 -13 -15 -101 -33 -154 -32 -22 1 -60 1 -85
0 l-45 -1 34 -23 c19 -12 45 -29 59 -39 49 -33 227 -4 285 45 59 52 21 135
-78 173 -35 13 -63 16 -123 11 -42 -3 -88 -9 -102 -12 -43 -10 -110 -7 -125 5
-23 19 -18 45 10 58 26 12 101 25 149 25 l29 1 -39 32 c-40 34 -58 37 -141 22z"/>
<path d="M2153 986 c-18 -6 -35 -15 -38 -18 -4 -4 54 -52 129 -109 148 -110
165 -134 127 -172 -16 -16 -33 -21 -70 -21 -58 1 -80 13 -251 139 l-127 95
-47 -16 c-28 -10 -44 -20 -39 -25 5 -5 78 -61 163 -124 100 -74 174 -122 214
-137 170 -63 323 29 269 163 -12 30 -40 58 -132 127 -106 81 -154 114 -163
111 -2 -1 -17 -7 -35 -13z"/>
<path d="M887 923 c-1 -1 -69 -3 -150 -6 -81 -2 -149 -6 -151 -8 -12 -13 -196
-565 -192 -576 3 -7 11 -13 19 -13 7 0 73 94 146 210 73 115 138 213 144 217
7 5 93 38 192 74 148 54 180 69 180 85 0 17 -8 19 -93 19 -52 0 -94 -1 -95 -2z"/>
<path d="M1635 788 c-66 -11 -257 -81 -254 -93 1 -6 93 -78 205 -162 l204
-152 45 15 c25 9 45 19 45 23 0 4 -22 23 -50 42 -27 19 -50 37 -50 41 0 4 18
12 39 19 33 10 49 8 107 -9 38 -11 84 -23 101 -27 31 -6 98 8 116 25 5 4 -41
24 -102 45 l-111 37 0 34 c0 67 -109 153 -210 166 -19 3 -57 1 -85 -4z m120
-90 c79 -41 72 -85 -21 -120 -37 -14 -42 -14 -61 1 -11 9 -35 27 -53 41 -80
60 -78 54 -29 72 74 28 119 29 164 6z"/>
</g>
</svg>
